<?xml version="1.0" encoding="UTF-8" standalone="no"?>
<svg
   xmlns:dc="http://purl.org/dc/elements/1.1/"
   xmlns:cc="http://creativecommons.org/ns#"
   xmlns:rdf="http://www.w3.org/1999/02/22-rdf-syntax-ns#"
   xmlns:svg="http://www.w3.org/2000/svg"
   xmlns="http://www.w3.org/2000/svg"
   xmlns:sodipodi="http://sodipodi.sourceforge.net/DTD/sodipodi-0.dtd"
   xmlns:inkscape="http://www.inkscape.org/namespaces/inkscape"
   version="1.1"
   id="svg6013"
   height="512"
   width="512"
   inkscape:version="0.48.4 r9939"
   sodipodi:docname="default-unisex.svg">
  <sodipodi:namedview
     pagecolor="#ffffff"
     bordercolor="#666666"
     borderopacity="1"
     objecttolerance="10"
     gridtolerance="10"
     guidetolerance="10"
     inkscape:pageopacity="0"
     inkscape:pageshadow="2"
     inkscape:window-width="1317"
     inkscape:window-height="744"
     id="namedview3251"
     showgrid="false"
     inkscape:zoom="0.921875"
     inkscape:cx="492.91986"
     inkscape:cy="282.74708"
     inkscape:window-x="49"
     inkscape:window-y="24"
     inkscape:window-maximized="1"
     inkscape:current-layer="svg6013" />
  <metadata
     id="metadata6044">
    <rdf:RDF>
      <cc:Work
         rdf:about="">
        <dc:format>image/svg+xml</dc:format>
        <dc:type
           rdf:resource="http://purl.org/dc/dcmitype/StillImage" />
        <dc:title />
      </cc:Work>
    </rdf:RDF>
  </metadata>
  <defs
     id="defs6042" />
  <path
     id="body-bg"
     style="stroke: none; fill: rgb(255, 255, 255)"
     fill-rule="nonzero"
     d="M 112.000000,502.000000 C 112.000000,502.000000 100.011047,409.542938 192.426666,401.186676 C 192.426666,401.186676 214.613342,401.186676 214.613342,401.186676 C 214.613342,401.186676 221.875000,396.493347 226.986664,396.493347 C 226.986664,396.493347 226.986664,383.266663 226.986664,383.266663 C 226.986664,383.266663 254.679993,397.075012 283.306671,383.693329 C 283.306671,383.693329 283.306671,395.640015 283.306671,395.640015 C 283.306671,395.640015 284.523346,393.353333 296.959991,401.613342 C 296.959991,401.613342 330.239990,401.613342 330.239990,401.613342 C 330.239990,401.613342 401.000000,410.341858 401.000000,502.000000 C 401.000000,502.000000 112.000000,502.000000 112.000000,502.000000 Z" />
  <path
     id="Rounded Rectangle 13 copy 4"
     style="stroke: none; fill: rgb(59, 67, 79)"
     fill-rule="evenodd"
     d="M 398.261932,505.586670 C 398.261932,505.586670 113.745544,505.586670 113.745544,505.586670 C 113.745544,505.586670 108.227661,505.586670 108.227661,505.586670 C 108.227661,505.586670 109.605011,482.056854 109.605011,482.056854 C 112.294312,436.114624 148.491882,401.053345 189.915009,401.053345 C 189.915009,401.053345 218.398651,401.053345 218.398651,401.053345 C 216.550812,402.581665 215.196655,404.166901 214.222778,405.746674 C 214.222778,405.746674 192.429718,405.746674 192.429718,405.746674 C 152.506348,405.746674 117.619324,439.495087 115.027374,483.717010 C 115.027374,483.717010 114.070648,500.040009 114.070648,500.040009 C 114.070648,500.040009 397.510162,500.040009 397.510162,500.040009 C 397.510162,500.040009 396.980103,483.717010 396.980103,483.717010 C 394.388153,439.495087 359.501129,405.746674 319.577728,405.746674 C 319.577728,405.746674 297.766113,405.746674 297.766113,405.746674 C 296.932007,404.178528 295.745941,402.593414 294.090027,401.053345 C 294.090027,401.053345 321.839417,401.053345 321.839417,401.053345 C 363.262543,401.053345 399.460114,436.114624 402.149414,482.056854 C 402.149414,482.056854 403.526764,505.586670 403.526764,505.586670 C 403.526764,505.586670 398.261932,505.586670 398.261932,505.586670 Z M 285.650421,405.746674 C 285.650421,405.746674 284.160004,405.746674 284.160004,405.746674 C 284.160004,405.746674 284.160004,401.053345 284.160004,401.053345 C 284.160004,401.053345 285.816010,401.053345 285.816010,401.053345 C 285.717010,402.273132 285.653381,403.810577 285.650421,405.746674 Z M 225.639282,401.053345 C 225.639282,401.053345 227.413330,401.053345 227.413330,401.053345 C 227.413330,401.053345 227.413330,405.746674 227.413330,405.746674 C 227.413330,405.746674 225.880066,405.746674 225.880066,405.746674 C 225.857147,403.753540 225.765808,402.224060 225.639282,401.053345 Z" />
  <path
     id="Shape 2 copy 9"
     style="stroke: none; fill: rgb(59, 67, 79)"
     fill-rule="evenodd"
     d="M 303.786652,426.226685 C 303.786652,426.226685 282.026672,458.653351 282.026672,458.653351 C 276.107239,440.306061 258.986664,447.133331 258.986664,447.133331 C 258.986664,447.133331 258.986664,501.321503 258.986664,501.321503 C 258.986664,502.734528 257.649475,503.880005 256.000000,503.880005 C 254.350525,503.880005 253.013336,502.734528 253.013336,501.321503 C 253.013336,501.321503 253.013336,447.132050 253.013336,447.132050 C 252.874817,447.077118 235.890472,440.380920 230.001587,458.653351 C 230.001587,458.653351 208.265228,426.226685 208.265228,426.226685 C 208.265228,426.226685 199.857147,404.849976 225.313354,395.506683 C 225.313354,386.184052 225.313354,385.693329 225.313354,385.693329 C 225.313354,385.693329 230.126953,385.693329 230.126953,385.693329 C 230.126953,385.693329 230.126953,403.517151 230.126953,416.577057 C 230.744934,421.893341 234.405304,437.041290 256.000000,442.013336 C 277.618164,437.041290 281.282532,421.893341 281.901184,416.577057 C 281.901184,403.517151 281.901184,385.693329 281.901184,385.693329 C 281.901184,385.693329 286.720001,385.693329 286.720001,385.693329 C 286.720001,385.693329 286.720001,386.184052 286.720001,395.506683 C 312.203857,404.849976 303.786652,426.226685 303.786652,426.226685 Z M 229.749268,429.097198 C 228.589020,427.783264 226.917877,424.519989 226.917877,424.519989 C 226.917877,424.519989 225.313354,419.180023 225.313354,416.839996 C 225.313354,413.933655 225.313354,410.118652 225.313354,406.017731 C 224.950470,401.136780 224.034760,401.053345 224.034760,401.053345 C 205.040985,410.408569 213.379669,424.946655 213.379669,424.946655 C 213.379669,424.946655 229.149200,449.693329 229.149200,449.693329 C 235.307312,439.258850 241.935303,441.160004 241.935303,441.160004 C 236.083344,438.177429 232.245422,433.548492 229.749268,429.097198 Z M 288.000000,401.053345 C 288.000000,401.053345 287.083282,401.136780 286.720001,406.017731 C 286.720001,410.118652 286.720001,413.933655 286.720001,416.839996 C 286.720001,419.180023 285.113739,424.519989 285.113739,424.519989 C 285.113739,424.519989 283.440765,427.783264 282.279266,429.097198 C 279.780396,433.548492 275.938293,438.177429 270.079987,441.160004 C 270.079987,441.160004 276.715179,439.258850 282.880005,449.693329 C 282.880005,449.693329 298.666656,424.946655 298.666656,424.946655 C 298.666656,424.946655 307.014404,410.408569 288.000000,401.053345 Z" />
  <path
     id="2 copy 5"
     style="stroke: none; fill: rgb(255, 255, 255)"
     fill-rule="nonzero"
     d="M 256.214661,116.466644 C 309.292542,116.466644 351.186951,166.067871 349.824738,225.664948 C 349.824738,225.664948 348.376923,289.006104 348.376923,289.006104 C 347.093597,345.152466 305.845428,389.533325 256.214661,389.533325 C 206.583893,389.533325 165.335724,345.152466 164.052399,289.006104 C 164.052399,289.006104 162.604584,225.664948 162.604584,225.664948 C 161.242401,166.067871 203.136780,116.466644 256.214661,116.466644 Z" />
  <path
     id="2 line"
     style="stroke: none; fill: rgb(59, 67, 79)"
     fill-rule="evenodd"
     d="M 354.089386,223.701141 C 354.089386,223.701141 352.572327,289.615509 352.572327,289.615509 C 351.227631,348.042816 308.006287,394.226654 256.001404,394.226654 C 203.996490,394.226654 160.775177,348.042816 159.430450,289.615509 C 159.430450,289.615509 157.913361,223.701141 157.913361,223.701141 C 156.486023,161.682922 200.384491,110.066650 256.001404,110.066650 C 311.618317,110.066650 355.516754,161.682922 354.089386,223.701141 Z M 255.788300,116.893311 C 203.436035,116.893311 162.114380,166.107025 163.457916,225.238495 C 163.457916,225.238495 164.885956,288.084808 164.885956,288.084808 C 166.151733,343.792511 206.836029,387.826660 255.788300,387.826660 C 304.740570,387.826660 345.424835,343.792511 346.690613,288.084808 C 346.690613,288.084808 348.118622,225.238495 348.118622,225.238495 C 349.462219,166.107025 308.140564,116.893311 255.788300,116.893311 Z" />
  <path
     id="Shape 11 copy"
     style="stroke: none; fill: rgb(255, 255, 255)"
     fill-rule="nonzero"
     d="M 157.807220,233.313141 C 157.795441,233.313812 156.759613,232.486603 154.803619,231.870758 C 153.826019,231.563507 152.611023,231.310760 151.226166,231.248444 C 150.880310,231.232880 150.524353,231.229187 150.160126,231.239532 C 149.795898,231.249878 149.423370,231.274231 149.044708,231.314667 C 148.287476,231.395569 147.505402,231.540955 146.718414,231.767334 C 143.567261,232.672913 140.352692,234.874664 138.464783,239.419098 C 137.517090,241.691437 136.891907,244.549713 136.726624,248.125916 C 136.685272,249.019989 136.672638,249.958923 136.690765,250.944794 C 136.708923,251.930664 136.757874,252.963470 136.839630,254.045288 C 137.003052,256.208832 137.298157,258.568451 137.737854,261.139679 C 137.728241,261.137146 137.327759,268.909668 140.106445,277.840820 C 142.718689,286.572784 148.991516,297.299225 160.573334,300.364410 C 159.241302,278.185028 159.199921,255.589905 157.807220,233.313141 C 157.807220,233.313141 157.807220,233.313141 157.807220,233.313141 Z" />
  <path
     id="Shape 3"
     style="stroke: none; fill: rgb(59, 67, 79)"
     fill-rule="nonzero"
     d="M 159.127869,234.207275 C 159.127869,234.207275 138.951477,227.955597 139.661530,248.698090 C 139.661530,248.698090 142.665436,278.775360 143.969879,281.547363 C 143.969879,281.547363 151.893707,299.059387 164.970856,299.835480 C 177.751862,300.593994 164.970856,299.835480 164.970856,299.835480 C 164.970856,299.835480 165.129578,305.480011 165.129578,305.480011 C 165.129578,305.480011 142.144928,302.533020 137.705597,276.045410 C 137.705597,276.045410 134.201721,251.982697 134.201721,251.982697 C 134.201721,251.982697 131.481110,220.138062 157.871185,228.234802 C 183.580475,236.122681 157.871185,228.234802 157.871185,228.234802 C 157.871185,228.234802 159.127869,234.207275 159.127869,234.207275 " />
  <path
     id="Shape 4"
     style="stroke: none; fill: rgb(59, 67, 79)"
     fill-rule="nonzero"
     d="M 152.468323,275.994812 C 152.468323,275.994812 151.339172,276.848145 150.369171,276.848145 C 149.399170,276.848145 148.283783,275.994812 148.283783,275.994812 C 148.283783,275.994812 146.201569,255.012024 146.201569,255.012024 C 146.201569,255.012024 149.074493,244.678558 161.265381,250.139496 C 161.265381,250.139496 161.553558,256.139221 161.553558,256.139221 C 161.553558,256.139221 150.857910,252.346008 151.079071,257.069427 C 151.291962,261.615967 152.468323,275.994812 152.468323,275.994812 Z" />
  <path
     id="Shape 11 copy_1"
     style="stroke: none; fill: rgb(247, 251, 251)"
     fill-rule="nonzero"
     d="M 354.813416,233.362122 C 354.825256,233.362793 355.865631,232.536163 357.830170,231.920715 C 358.812073,231.613678 360.032379,231.361115 361.423309,231.298828 C 361.770660,231.283295 362.128174,231.279602 362.494019,231.289948 C 362.859833,231.300262 363.233978,231.324615 363.614319,231.365021 C 364.374847,231.445862 365.160370,231.591156 365.950806,231.817383 C 369.115753,232.722351 372.344391,234.922607 374.240570,239.463959 C 375.192413,241.734741 375.820343,244.591064 375.986328,248.164856 C 376.027863,249.058319 376.040558,249.996613 376.022369,250.981812 C 376.004120,251.967010 375.954956,252.999115 375.872833,254.080200 C 375.708710,256.242279 375.412292,258.600311 374.970673,261.169769 C 374.980347,261.167236 375.382568,268.934509 372.591705,277.859589 C 369.968048,286.585632 363.667725,297.304779 352.035187,300.367889 C 353.373047,278.203552 353.414612,255.623779 354.813416,233.362122 C 354.813416,233.362122 354.813416,233.362122 354.813416,233.362122 Z" />
  <path
     id="Shape 3_1"
     style="stroke: none; fill: rgb(59, 67, 79)"
     fill-rule="nonzero"
     d="M 352.482605,234.255676 C 352.482605,234.255676 372.747375,228.008240 372.034210,248.736633 C 372.034210,248.736633 369.017151,278.793488 367.706970,281.563599 C 367.706970,281.563599 359.748444,299.063751 346.614044,299.839325 C 333.777039,300.597321 346.614044,299.839325 346.614044,299.839325 C 346.614044,299.839325 346.454620,305.480011 346.454620,305.480011 C 346.454620,305.480011 369.539917,302.535034 373.998688,276.065399 C 373.998688,276.065399 377.517914,252.019012 377.517914,252.019012 C 377.517914,252.019012 380.250458,220.195984 353.744781,228.287231 C 327.922913,236.169769 353.744781,228.287231 353.744781,228.287231 C 353.744781,228.287231 352.482605,234.255676 352.482605,234.255676 " />
  <path
     id="Shape 4_1"
     style="stroke: none; fill: rgb(59, 67, 79)"
     fill-rule="nonzero"
     d="M 359.171326,276.014832 C 359.171326,276.014832 360.305420,276.867584 361.279663,276.867584 C 362.253906,276.867584 363.374176,276.014832 363.374176,276.014832 C 363.374176,276.014832 365.465515,255.046295 365.465515,255.046295 C 365.465515,255.046295 362.580017,244.719849 350.335724,250.177063 C 350.335724,250.177063 350.046295,256.172729 350.046295,256.172729 C 350.046295,256.172729 360.788788,252.382080 360.566650,257.102295 C 360.352844,261.645752 359.171326,276.014832 359.171326,276.014832 Z" />
  <path
     id="Shape 11"
     style="stroke: none; fill: rgb(255, 255, 255)"
     fill-rule="nonzero"
     d="M 353.342529,233.349396 C 353.354340,233.350098 354.391296,232.519043 356.349487,231.900360 C 357.328186,231.591675 358.544525,231.337769 359.930939,231.275146 C 360.277161,231.259491 360.633514,231.255798 360.998169,231.266205 C 361.362793,231.276581 361.735718,231.301056 362.114807,231.341675 C 362.872894,231.422974 363.655823,231.569000 364.443726,231.796448 C 367.598389,232.706207 370.816559,234.918152 372.706543,239.483643 C 373.655334,241.766510 374.281189,244.638000 374.446655,248.230774 C 374.488068,249.128967 374.500702,250.072235 374.482544,251.062683 C 374.464386,252.053131 374.415375,253.090729 374.333527,254.177521 C 374.169922,256.351105 373.874512,258.721619 373.434326,261.304749 C 373.443909,261.302216 373.844849,269.110748 371.063080,278.083221 C 368.447906,286.855621 362.168091,297.631714 350.573334,300.711121 C 351.906830,278.429016 351.948273,255.729309 353.342529,233.349396 C 353.342529,233.349396 353.342529,233.349396 353.342529,233.349396 Z" />
  <path
     id="Shape 3_2"
     style="stroke: none; fill: rgb(59, 67, 79)"
     fill-rule="nonzero"
     d="M 352.922668,234.255646 C 352.922668,234.255646 373.187408,228.008240 372.474274,248.736664 C 372.474274,248.736664 369.457184,278.793457 368.147064,281.563629 C 368.147064,281.563629 360.188538,299.063721 347.054077,299.839294 C 334.217102,300.597351 347.054077,299.839294 347.054077,299.839294 C 347.054077,299.839294 346.894684,305.480011 346.894684,305.480011 C 346.894684,305.480011 369.980011,302.535034 374.438782,276.065369 C 374.438782,276.065369 377.958008,252.019012 377.958008,252.019012 C 377.958008,252.019012 380.690521,220.196014 354.184845,228.287231 C 328.362976,236.169739 354.184845,228.287231 354.184845,228.287231 C 354.184845,228.287231 352.922668,234.255646 352.922668,234.255646 " />
  <path
     id="Shape 4_2"
     style="stroke: none; fill: rgb(59, 67, 79)"
     fill-rule="nonzero"
     d="M 359.611389,276.014832 C 359.611389,276.014832 363.814240,276.014832 363.814240,276.014832 C 363.814240,276.014832 365.905548,255.046265 365.905548,255.046265 C 365.905548,255.046265 363.020081,244.719818 350.775787,250.177063 C 350.775787,250.177063 350.486359,256.172729 350.486359,256.172729 C 350.486359,256.172729 361.228851,252.382080 361.006714,257.102325 C 360.792908,261.645752 359.611389,276.014832 359.611389,276.014832 Z" />
</svg>
